Coordinates
version=1
nRows=27
nColumns=12
inDegrees=yes

Units are S.I. units (second, meters, Newtons, ...)
Angles are in degrees

endheader
time	SC_y	SC_z	SC_x	AC_y	AC_z	AC_x	GH_y	GH_z	GH_yy	EL_x	PS_y
       0.0              -27.21          27.89           76.1          40.14         0.7876          18.54         -112.3          58.23         -22.39          110.4          158.2
    0.0392              -27.21          27.88           76.1          40.14         0.7872          18.54         -112.2          58.22         -22.38          110.4          158.2
   0.07839              -27.22          27.88           76.1          40.14         0.7867          18.54         -112.2           58.2         -22.37          110.4          158.2
    0.1176              -27.22          27.88           76.1          40.14         0.7861          18.53         -112.2          58.19         -22.35          110.4          158.2
    0.1568              -27.22          27.88           76.1          40.14         0.7855          18.53         -112.1          58.18         -22.34          110.4          158.2
     0.196              -27.22          27.88           76.1          40.14         0.7849          18.53         -112.0          58.16         -22.32          110.4          158.2
    0.2352              -27.22          27.88           76.1          40.14         0.7843          18.53         -112.0          58.15          -22.3          110.4          158.2
    0.2744              -27.22          27.88           76.1          40.15         0.7836          18.53         -111.9          58.13         -22.29          110.4          158.2
    0.3136              -27.23          27.88          76.11          40.15         0.7828          18.53         -111.9          58.11         -22.27          110.4          158.2
    0.3528              -27.23          27.88          76.11          40.15          0.782          18.53         -111.8          58.09         -22.25          110.4          158.2
     0.392              -27.23          27.87          76.11          40.15         0.7811          18.52         -111.7          58.07         -22.23          110.3          158.2
    0.4312              -27.23          27.87          76.11          40.15         0.7802          18.52         -111.6          58.05          -22.2          110.3          158.2
    0.4704              -27.24          27.87          76.11          40.16         0.7792          18.52         -111.5          58.03         -22.18          110.3          158.2
    0.5096              -27.24          27.87          76.11          40.16         0.7781          18.52         -111.4           58.0         -22.15          110.3          158.2
    0.5488              -27.24          27.87          76.12          40.16         0.7769          18.52         -111.3          57.98         -22.12          110.3          158.2
     0.588              -27.24          27.86          76.12          40.17         0.7757          18.51         -111.2          57.95         -22.09          110.2          158.2
    0.6272              -27.25          27.86          76.12          40.17         0.7743          18.51         -111.1          57.91         -22.05          110.2          158.2
    0.6663              -27.25          27.86          76.12          40.17         0.7728          18.51         -111.0          57.88         -22.01          110.2          158.2
    0.7055              -27.26          27.85          76.13          40.18         0.7711           18.5         -110.8          57.84         -21.97          110.2          158.2
    0.7447              -27.26          27.85          76.13          40.18         0.7693           18.5         -110.7           57.8         -21.93          110.1          158.2
    0.7839              -27.27          27.85          76.13          40.19         0.7673          18.49         -110.5          57.75         -21.88          110.1          158.2
    0.8231              -27.27          27.84          76.14          40.19         0.7652          18.49         -110.3           57.7         -21.82          110.1          158.2
    0.8623              -27.28          27.84          76.14           40.2         0.7628          18.48         -110.1          57.64         -21.76          110.0          158.2
    0.9015              -27.29          27.83          76.15          40.21         0.7601          18.48         -109.8          57.58         -21.69          110.0          158.2
    0.9407              -27.29          27.83          76.15          40.21         0.7571          18.47         -109.6          57.51         -21.62          109.9          158.2
    0.9799               -27.3          27.82          76.16          40.22         0.7538          18.46         -109.3          57.43         -21.53          109.9          158.2
     1.019              -27.31          27.82          76.17          40.23         0.7501          18.46         -109.0          57.34         -21.44          109.8          158.2
